<svg width="16" height="18" viewBox="0 0 16 18" fill="none" xmlns="http://www.w3.org/2000/svg">
<path d="M13 8.34082H2.5C1.67157 8.34082 1 9.01239 1 9.84082V15.0908C1 15.9192 1.67157 16.5908 2.5 16.5908H13C13.8284 16.5908 14.5 15.9192 14.5 15.0908V9.84082C14.5 9.01239 13.8284 8.34082 13 8.34082Z" stroke="black" stroke-width="1.5" stroke-linecap="round" stroke-linejoin="round"/>
<path d="M4 8.34082V5.34082C4 4.34626 4.39509 3.39243 5.09835 2.68917C5.80161 1.98591 6.75544 1.59082 7.75 1.59082C8.74456 1.59082 9.69839 1.98591 10.4017 2.68917C11.1049 3.39243 11.5 4.34626 11.5 5.34082V8.34082" stroke="black" stroke-width="1.5" stroke-linecap="round" stroke-linejoin="round"/>
</svg>
