<svg width="125" height="34" viewBox="0 0 125 34" fill="none" xmlns="http://www.w3.org/2000/svg">
<rect width="66" height="34" fill="#8B5CF6"/>
<path d="M11.9574 27H8.69602L16.0241 6.63636H19.5739L26.902 27H23.6406L17.8835 10.3352H17.7244L11.9574 27ZM12.5043 19.0256H23.0838V21.6108H12.5043V19.0256ZM35.7912 27.3082C34.313 27.3082 33.0402 26.9735 31.973 26.304C30.9124 25.6278 30.0971 24.6965 29.527 23.5099C28.9569 22.3234 28.6719 20.9645 28.6719 19.4332C28.6719 17.8821 28.9635 16.5133 29.5469 15.3267C30.1302 14.1335 30.9522 13.2022 32.0128 12.5327C33.0734 11.8632 34.3229 11.5284 35.7614 11.5284C36.9214 11.5284 37.9555 11.7438 38.8636 12.1747C39.7718 12.599 40.5043 13.1955 41.0611 13.9645C41.6245 14.7334 41.9593 15.6316 42.0653 16.6591H39.1719C39.0128 15.9432 38.6482 15.3267 38.0781 14.8097C37.5147 14.2926 36.759 14.0341 35.8111 14.0341C34.9825 14.0341 34.2566 14.2528 33.6335 14.6903C33.017 15.1212 32.5365 15.7377 32.1918 16.5398C31.8471 17.3352 31.6747 18.2765 31.6747 19.3636C31.6747 20.4773 31.8438 21.4384 32.1818 22.2472C32.5199 23.0559 32.9972 23.6823 33.6136 24.1264C34.2367 24.5705 34.9692 24.7926 35.8111 24.7926C36.3745 24.7926 36.8849 24.6899 37.3423 24.4844C37.8063 24.2723 38.1941 23.9706 38.5057 23.5795C38.8239 23.1884 39.0459 22.7178 39.1719 22.1676H42.0653C41.9593 23.1553 41.6378 24.0369 41.1009 24.8125C40.5639 25.5881 39.8447 26.1979 38.9432 26.642C38.0483 27.0862 36.9976 27.3082 35.7912 27.3082ZM51.6779 27.3082C50.1997 27.3082 48.927 26.9735 47.8597 26.304C46.7991 25.6278 45.9838 24.6965 45.4137 23.5099C44.8436 22.3234 44.5586 20.9645 44.5586 19.4332C44.5586 17.8821 44.8503 16.5133 45.4336 15.3267C46.0169 14.1335 46.8389 13.2022 47.8995 12.5327C48.9601 11.8632 50.2096 11.5284 51.6481 11.5284C52.8081 11.5284 53.8422 11.7438 54.7504 12.1747C55.6585 12.599 56.391 13.1955 56.9478 13.9645C57.5112 14.7334 57.846 15.6316 57.9521 16.6591H55.0586C54.8995 15.9432 54.5349 15.3267 53.9648 14.8097C53.4014 14.2926 52.6457 14.0341 51.6978 14.0341C50.8692 14.0341 50.1433 14.2528 49.5202 14.6903C48.9038 15.1212 48.4232 15.7377 48.0785 16.5398C47.7338 17.3352 47.5614 18.2765 47.5614 19.3636C47.5614 20.4773 47.7305 21.4384 48.0685 22.2472C48.4066 23.0559 48.8839 23.6823 49.5004 24.1264C50.1235 24.5705 50.8559 24.7926 51.6978 24.7926C52.2612 24.7926 52.7717 24.6899 53.229 24.4844C53.6931 24.2723 54.0808 23.9706 54.3924 23.5795C54.7106 23.1884 54.9326 22.7178 55.0586 22.1676H57.9521C57.846 23.1553 57.5245 24.0369 56.9876 24.8125C56.4506 25.5881 55.7314 26.1979 54.8299 26.642C53.935 27.0862 52.8844 27.3082 51.6779 27.3082Z" fill="white"/>
<path d="M68.7802 6.63636H72.5089L78.9918 22.4659H79.2305L85.7134 6.63636H89.4421V27H86.5188V12.2642H86.3299L80.3242 26.9702H77.8981L71.8924 12.2543H71.7035V27H68.7802V6.63636ZM98.1151 27.3381C97.1473 27.3381 96.2723 27.1591 95.4901 26.8011C94.7079 26.4366 94.0881 25.9096 93.6307 25.2202C93.1799 24.5308 92.9545 23.6856 92.9545 22.6847C92.9545 21.8229 93.1203 21.1136 93.4517 20.5568C93.7831 20 94.2306 19.5592 94.794 19.2344C95.3575 18.9096 95.9872 18.6643 96.6832 18.4986C97.3793 18.3329 98.0885 18.2069 98.8111 18.1207C99.7259 18.0147 100.468 17.9285 101.038 17.8622C101.608 17.7893 102.023 17.6733 102.281 17.5142C102.54 17.3551 102.669 17.0966 102.669 16.7386V16.669C102.669 15.8007 102.424 15.1278 101.933 14.6506C101.449 14.1733 100.727 13.9347 99.7656 13.9347C98.7647 13.9347 97.9759 14.1567 97.3991 14.6009C96.8291 15.0384 96.4347 15.5256 96.2159 16.0625L93.4219 15.4261C93.7533 14.4981 94.2372 13.7491 94.8736 13.179C95.5166 12.6023 96.2557 12.1847 97.0909 11.9261C97.9261 11.661 98.8045 11.5284 99.7259 11.5284C100.336 11.5284 100.982 11.6013 101.665 11.7472C102.354 11.8864 102.997 12.1449 103.594 12.5227C104.197 12.9006 104.691 13.4408 105.075 14.1435C105.46 14.8395 105.652 15.7443 105.652 16.858V27H102.749V24.9119H102.629C102.437 25.2964 102.149 25.6742 101.764 26.0455C101.38 26.4167 100.886 26.7249 100.283 26.9702C99.6795 27.2154 98.9569 27.3381 98.1151 27.3381ZM98.7614 24.9517C99.5833 24.9517 100.286 24.7893 100.869 24.4645C101.459 24.1397 101.907 23.7154 102.212 23.1918C102.523 22.6615 102.679 22.0947 102.679 21.4915V19.5227C102.573 19.6288 102.367 19.7282 102.062 19.821C101.764 19.9072 101.423 19.9834 101.038 20.0497C100.654 20.1094 100.279 20.1657 99.9148 20.2188C99.5502 20.2652 99.2453 20.3049 99 20.3381C98.4233 20.411 97.8963 20.5336 97.419 20.706C96.9484 20.8783 96.5705 21.1269 96.2855 21.4517C96.0071 21.7699 95.8679 22.1941 95.8679 22.7244C95.8679 23.4602 96.1397 24.017 96.6832 24.3949C97.2268 24.7661 97.9195 24.9517 98.7614 24.9517ZM112.585 17.9318V27H109.612V11.7273H112.466V14.2131H112.654C113.006 13.4044 113.556 12.7547 114.305 12.2642C115.061 11.7737 116.012 11.5284 117.159 11.5284C118.199 11.5284 119.111 11.7472 119.893 12.1847C120.675 12.6155 121.282 13.2585 121.713 14.1136C122.144 14.9687 122.359 16.026 122.359 17.2855V27H119.386V17.6435C119.386 16.5365 119.098 15.6714 118.521 15.0483C117.944 14.4186 117.152 14.1037 116.145 14.1037C115.455 14.1037 114.842 14.2528 114.305 14.5511C113.775 14.8494 113.354 15.2869 113.042 15.8636C112.737 16.4337 112.585 17.1231 112.585 17.9318Z" fill="black"/>
</svg>
